<svg width="1022" height="746" viewBox="0 0 1022 746" fill="none" xmlns="http://www.w3.org/2000/svg">
<path d="M479.865 1.08658C311.021 13.0815 151.756 123.973 24.8228 317.85C-8.30747 368.523 -8.30747 377.58 25.0224 428.742C151.756 622.864 311.619 733.511 481.263 745.017C673.059 757.746 854.477 646.609 997.177 428.497C1030.31 377.825 1030.31 368.768 996.978 317.606C904.372 175.87 794.204 78.4416 672.46 30.7067C634.54 15.7742 588.836 5.00329 552.912 2.31056C513.794 -0.382183 505.412 -0.626977 479.865 1.08658ZM553.311 115.161C610.59 128.38 665.675 176.359 695.612 238.782C731.536 314.179 735.328 405.242 705.79 482.352C694.215 512.462 683.038 532.046 664.078 556.035C557.303 690.917 375.485 649.792 313.615 476.722C291.262 414.299 290.863 337.924 312.617 272.808C333.573 209.407 379.277 154.083 431.368 128.869C470.884 109.775 510.401 105.369 553.311 115.161Z" fill="white"/>
<path d="M490.044 233.641C457.513 242.209 428.773 266.933 412.408 300.715C400.233 325.439 396.242 343.799 396.441 373.174C396.441 401.57 398.637 413.075 407.817 436.82C416.399 458.607 441.147 488.962 459.309 499.733C523.374 537.676 597.817 498.998 620.969 416.013C627.555 392.268 627.755 355.059 621.368 330.335C606.799 273.787 564.488 234.376 515.99 232.172C506.21 231.683 494.435 232.417 490.044 233.641Z" fill="white"/>
</svg>
