<svg width="346" height="349" viewBox="0 0 346 349" fill="none" xmlns="http://www.w3.org/2000/svg">
<path d="M281.823 260.462L296.729 262.14L281.823 260.462ZM64.1765 260.462L49.2707 262.14L64.1765 260.462ZM99.9085 329.109L94.1038 342.941L94.1039 342.941L99.9085 329.109ZM75.2007 309.246L62.7755 317.649H62.7755L75.2007 309.246ZM270.799 309.246L283.224 317.649V317.649L270.799 309.246ZM246.092 329.109L251.896 342.941L251.896 342.941L246.092 329.109ZM15 70.18C6.71573 70.18 0 76.8957 0 85.18C0 93.4643 6.71573 100.18 15 100.18V70.18ZM331 100.18C339.284 100.18 346 93.4643 346 85.18C346 76.8957 339.284 70.18 331 70.18V100.18ZM198.516 16.3044L201.99 1.71206V1.71206L198.516 16.3044ZM228.986 43.3724L243.347 39.0408V39.0408L228.986 43.3724ZM147.484 16.3044L150.957 30.8967L147.484 16.3044ZM117.014 43.3724L131.375 47.704L117.014 43.3724ZM238.179 144.278C239.105 136.046 233.183 128.621 224.951 127.694C216.718 126.767 209.294 132.69 208.367 140.922L238.179 144.278ZM194.003 268.522C193.077 276.754 198.999 284.179 207.231 285.106C215.463 286.033 222.888 280.11 223.815 271.878L194.003 268.522ZM137.633 140.922C136.706 132.69 129.282 126.767 121.049 127.694C112.817 128.621 106.895 136.046 107.821 144.278L137.633 140.922ZM122.185 271.878C123.112 280.11 130.537 286.033 138.769 285.106C147.001 284.179 152.923 276.754 151.997 268.522L122.185 271.878ZM190.352 319H155.648V349H190.352V319ZM155.648 319C140.744 319 130.33 318.992 122.166 318.425C114.145 317.868 109.396 316.824 105.713 315.278L94.1039 342.941C102.075 346.286 110.5 347.687 120.088 348.353C129.532 349.008 141.161 349 155.648 349V319ZM49.2707 262.14C50.7036 274.87 51.8727 285.374 53.5936 293.888C55.3632 302.642 57.9232 310.474 62.7755 317.649L87.6259 300.842C85.8407 298.203 84.3509 294.632 82.9989 287.944C81.5982 281.014 80.5739 272.034 79.0824 258.784L49.2707 262.14ZM105.713 315.278C97.9486 312.02 91.7289 306.909 87.6259 300.842L62.7755 317.649C70.3648 328.87 81.3403 337.584 94.1038 342.941L105.713 315.278ZM266.918 258.784C265.426 272.034 264.402 281.014 263.001 287.944C261.649 294.632 260.159 298.203 258.374 300.842L283.224 317.649C288.077 310.474 290.637 302.642 292.406 293.888C294.127 285.374 295.296 274.87 296.729 262.14L266.918 258.784ZM190.352 349C204.839 349 216.468 349.008 225.912 348.353C235.5 347.687 243.925 346.286 251.896 342.941L240.287 315.278C236.604 316.824 231.855 317.868 223.834 318.425C215.67 318.992 205.256 319 190.352 319V349ZM258.374 300.842C254.271 306.909 248.051 312.02 240.287 315.278L251.896 342.941C264.66 337.584 275.635 328.87 283.224 317.649L258.374 300.842ZM215.455 66.04V78.8H245.455V66.04H215.455ZM130.545 78.8V66.04H100.545V78.8H130.545ZM173 30C187.224 30 191.709 30.1031 195.043 30.8967L201.99 1.71206C194.364 -0.103114 185.492 0 173 0V30ZM245.455 66.04C245.455 55.2478 245.615 46.5592 243.347 39.0408L214.625 47.704C215.294 49.9215 215.455 53.0994 215.455 66.04H245.455ZM195.043 30.8967C205.393 33.3603 212.375 40.2423 214.625 47.704L243.347 39.0408C237.629 20.0823 221.38 6.32768 201.99 1.71206L195.043 30.8967ZM173 0C160.508 0 151.636 -0.103114 144.01 1.71206L150.957 30.8967C154.291 30.1031 158.776 30 173 30V0ZM130.545 66.04C130.545 53.0993 130.706 49.9215 131.375 47.704L102.653 39.0408C100.385 46.5592 100.545 55.2478 100.545 66.04H130.545ZM144.01 1.71206C124.62 6.32768 108.371 20.0823 102.653 39.0408L131.375 47.704C133.625 40.2423 140.607 33.3603 150.957 30.8967L144.01 1.71206ZM208.367 140.922L194.003 268.522L223.815 271.878L238.179 144.278L208.367 140.922ZM107.821 144.278L122.185 271.878L151.997 268.522L137.633 140.922L107.821 144.278ZM301.555 100.18H331V70.18H301.555V100.18ZM286.649 83.5021L266.918 258.784L296.729 262.14L316.46 86.8579L286.649 83.5021ZM230.455 100.18H301.555V70.18H230.455V100.18ZM215.455 78.8V85.18H245.455V78.8H215.455ZM115.545 100.18H230.455V70.18H115.545V100.18ZM100.545 78.8V85.18H130.545V78.8H100.545ZM15 100.18H44.4455V70.18H15V100.18ZM44.4455 100.18H115.545V70.18H44.4455V100.18ZM79.0824 258.784L59.3513 83.5021L29.5396 86.8579L49.2707 262.14L79.0824 258.784Z" fill="white"/>
</svg>
